PathFileType	4	(X/Y/Z)	D:\TRACE\spot_10-12-23\spot_arm_body_motion_1_9-platform.trc
DataRate	CameraRate	NumFrames	NumMarkers	Units	OrigDataRate	OrigDataStartFrame	OrigNumFrames
100.00	100.00	      25	5	mm	100.00	1	      7000
Frame#	Time	Left_Front			Right_Front			Left_Aft			Right_Aft			Post			
		X1	Y1	Z1	X2	Y2	Z2	X3	Y3	Z3	X4	Y4	Z4	X5	Y5	Z5	

1	0.000	-782.90796	13.41259	-651.22382	784.73993	11.14025	-626.71271	-714.14612	10.89775	487.28345	692.82263	8.62140	589.11011	4.91484	742.40271	-960.02277	
2	0.010	-782.89154	13.36321	-651.19653	784.71265	11.12674	-626.71161	-714.14795	10.90631	487.30585	692.87811	8.61020	589.09186	5.01043	742.33081	-959.87439	
3	0.020	-782.93286	13.37167	-651.17480	784.71503	11.08724	-626.69092	-714.11975	10.92723	487.32495	692.77356	8.65043	589.04761	5.01314	742.30951	-959.85687	
4	0.030	-782.92877	13.35419	-651.17352	784.70227	11.10629	-626.70313	-714.15302	10.90910	487.31253	692.82507	8.59176	589.11981	5.06663	742.28625	-959.78790	
5	0.040	-782.96753	13.42862	-651.17578	784.72424	11.11729	-626.71631	-714.14020	10.86095	487.31229	692.78601	8.52888	589.09180	4.98449	742.35980	-959.83771	
6	0.050	-782.95752	13.43883	-651.18140	784.72961	11.12327	-626.72076	-714.13953	10.87839	487.26608	692.82385	8.57487	589.12506	5.01333	742.40002	-959.82666	
7	0.060	-782.94464	13.42648	-651.19995	784.72791	11.14418	-626.70087	-714.16785	10.89111	487.31122	692.73773	8.60800	589.00775	4.88534	742.44934	-959.93726	
8	0.070	-782.97656	13.41416	-651.19818	784.69672	11.11504	-626.70007	-714.16052	10.87405	487.28445	692.79797	8.54020	589.08551	4.96346	742.36731	-959.81250	
9	0.080	-782.95221	13.36440	-651.20459	784.71252	11.09556	-626.70111	-714.16162	10.88109	487.28625	692.82764	8.59992	589.07422	4.82292	742.50269	-959.99719	
10	0.090	-782.92395	13.36090	-651.18860	784.73303	11.09728	-626.69928	-714.14020	10.93950	487.28271	692.74768	8.67808	589.03314	4.86171	742.49634	-959.99634	
11	0.100	-782.93250	13.42005	-651.18365	784.74957	11.13309	-626.71619	-714.15808	10.87962	487.25946	692.80896	8.55339	589.10345	5.00535	742.34351	-959.83881	
12	0.110	-782.93488	13.42451	-651.20227	784.75696	11.14273	-626.70258	-714.14410	10.91993	487.29553	692.83325	8.56950	589.10559	5.01580	742.37103	-959.88281	
13	0.120	-782.96283	13.40545	-651.19647	784.73212	11.13862	-626.70441	-714.17749	10.90135	487.30194	692.76208	8.63617	589.01569	5.03281	742.38770	-959.91052	
14	0.130	-782.99152	13.43172	-651.19055	784.71912	11.12190	-626.70581	-714.17432	10.88645	487.32123	692.78375	8.54686	589.06940	4.92137	742.43939	-960.05994	
15	0.140	-782.94098	13.36474	-651.18762	784.73035	11.13471	-626.70148	-714.17084	10.87340	487.31097	692.71783	8.63877	589.02905	5.02341	742.37549	-959.88580	
16	0.150	-782.96100	13.44378	-651.20007	784.73230	11.12972	-626.72369	-714.15137	10.88628	487.28036	692.69330	8.63032	589.01385	5.01802	742.35907	-959.89313	
17	0.160	-782.94147	13.39557	-651.21179	784.73608	11.14489	-626.71863	-714.14453	10.94732	487.29276	692.79730	8.59036	589.14343	5.08940	742.31146	-959.84735	
18	0.170	-782.92432	13.41705	-651.21802	784.75793	11.13938	-626.69391	-714.15021	10.89677	487.30142	692.81012	8.56229	589.10132	5.04516	742.35754	-959.88672	
19	0.180	-782.90710	13.39174	-651.19049	784.67963	11.11901	-626.69824	-714.17493	10.91392	487.29004	692.68536	8.61998	589.02942	5.02813	742.32306	-959.86163	
20	0.190	-782.95715	13.36285	-651.20062	784.71851	11.08753	-626.68353	-714.15753	10.87501	487.28314	692.81763	8.55337	589.09918	4.94117	742.39746	-959.93671	
21	0.200	-782.94031	13.34864	-651.20081	784.72754	11.14158	-626.70667	-714.16608	10.89050	487.27914	692.78229	8.58095	589.07312	5.05673	742.33160	-959.83350	
22	0.210	-782.93756	13.38988	-651.18958	784.73553	11.12520	-626.71057	-714.15155	10.87975	487.29950	692.81604	8.57343	589.09894	5.03346	742.36389	-959.82983	
23	0.220	-782.90826	13.36858	-651.20874	784.74817	11.14673	-626.66901	-714.15363	10.90599	487.27600	692.75531	8.67531	589.01123	5.01796	742.37866	-959.82697	
24	0.230	-782.95477	13.38238	-651.18536	784.73615	11.11742	-626.70227	-714.12915	10.90974	487.31305	692.76770	8.56817	589.11804	4.89217	742.42200	-960.00568	
25	0.240	-782.92633	13.35380	-651.17743	784.70563	11.11071	-626.68262	-714.18958	10.89205	487.33243	692.68604	8.62361	589.02899	4.99348	742.33557	-959.84369	
